<svg width="94" height="102" viewBox="0 0 94 102" fill="none" xmlns="http://www.w3.org/2000/svg">
<path d="M0 47C0 21.0426 21.0426 0 47 0V0C72.9574 0 94 21.0426 94 47V97.789H89.5V102H76V93.578H70V86.0917H61.5V93.578H56V102H37V93.578H31V86.0917H22.5V93.578H17V102H4V97.789H0V47Z" fill="#C4C4C4"/>
<path d="M0 47C0 21.0426 21.0426 0 47 0V0C72.9574 0 94 21.0426 94 47V97.789H89.5V102H76V93.578H70V86.0917H61.5V93.578H56V102H37V93.578H31V86.0917H22.5V93.578H17V102H4V97.789H0V47Z" fill="#47DAC5"/>
<rect x="15" y="21" width="26" height="26" rx="13" fill="white"/>
<rect x="54" y="21" width="26" height="26" rx="13" fill="white"/>
<rect width="12" height="12" transform="matrix(1 0 0 -1 22 40)" fill="#262C3A"/>
<rect width="12" height="12" transform="matrix(1 0 0 -1 61 40)" fill="#262C3A"/>
</svg>
